<svg xmlns="http://www.w3.org/2000/svg" version="1.1" xmlns:xlink="http://www.w3.org/1999/xlink" xmlns:svgjs="http://svgjs.dev/svgjs" width="1000" height="280" viewBox="0 0 1000 280"><g transform="matrix(1,0,0,1,-0.6060543335311763,-0.5905492573361641)"><svg viewBox="0 0 396 111" data-background-color="#ffffff" preserveAspectRatio="xMidYMid meet" height="280" width="1000" xmlns="http://www.w3.org/2000/svg" xmlns:xlink="http://www.w3.org/1999/xlink"><g id="tight-bounds" transform="matrix(1,0,0,1,0.23999751607834696,0.23411059844397641)"><svg viewBox="0 0 395.52 110.53143457975999" height="110.53143457975999" width="395.52"><g><svg viewBox="0 0 567.696074734964 158.6475059308106" height="110.53143457975999" width="395.52"><g transform="matrix(1,0,0,1,172.17607473496395,47.28861595728503)"><svg viewBox="0 0 395.52 64.07027401624055" height="64.07027401624055" width="395.52"><g id="textblocktransform"><svg viewBox="0 0 395.52 64.07027401624055" height="64.07027401624055" width="395.52" id="textblock"><g><svg viewBox="0 0 395.52 28.65299480708194" height="28.65299480708194" width="395.52"><g transform="matrix(1,0,0,1,0,0)"><svg width="395.52" viewBox="1.7599999904632568 -38.400001525878906 536.8215801715851 38.989715576171875" height="28.65299480708194" data-palette-color="#6b7280"><g transform="matrix(1,0,0,1,0,0)"><g><svg width="7.141063213348389" viewBox="3.1600000858306885 -36.36000061035156 28.68000030517578 36.36000061035156" height="9.0556640625" data-palette-color="#6b7280" id="scriptelement" x="531.4405267238617" y="-38.400001525878906"><path d="M10.85 0L3.16 0 3.16-36.36 17.51-36.36Q21.63-36.36 24.55-34.9 27.47-33.43 29-30.76 30.54-28.09 30.54-24.49L30.54-24.49Q30.54-20.86 28.98-18.26 27.41-15.66 24.46-14.28 21.5-12.89 17.31-12.89L17.31-12.89 7.71-12.89 7.71-19.07 16.07-19.07Q18.27-19.07 19.73-19.67 21.18-20.28 21.9-21.48 22.62-22.69 22.62-24.49L22.62-24.49Q22.62-26.3 21.9-27.54 21.18-28.78 19.72-29.43 18.25-30.08 16.03-30.08L16.03-30.08 10.85-30.08 10.85 0ZM14.51-16.55L22.8-16.55 31.84 0 23.35 0 14.51-16.55Z" opacity="1" transform="matrix(1,0,0,1,0,0)" fill="#6b7280" class="undefined-123" data-fill-palette-color="primary" id="p-123"></path></svg></g></g><g class="wordmark-text-0" data-fill-palette-color="primary" id="text-0"><path d="M1.76-36.82L13.72-36.82 13.72-34.74 10.06-34.18 10.06-2.93 23.44-2.93 24.88-8.4 26.88-8.4 26.66 0 1.76 0 1.76-2.08 5.47-2.64 5.47-34.18 1.76-34.74 1.76-36.82ZM35.87-4.74Q33.49-7.2 32.26-10.56 31.03-13.92 31.03-17.35 31.03-20.78 31.71-23.41 32.39-26.05 33.6-28.22 34.81-30.4 36.51-32.1 38.21-33.81 40.23-34.99L40.23-34.99Q44.36-37.38 49.07-37.38 53.78-37.38 57.25-36 60.72-34.62 63.08-32.2L63.08-32.2Q67.89-27.29 67.89-19.31L67.89-19.31Q67.89-10.42 62.5-4.81L62.5-4.81Q60.01-2.22 56.7-0.83 53.39 0.56 49.3 0.56 45.21 0.56 41.73-0.85 38.25-2.27 35.87-4.74ZM39.45-29.93Q37.67-27.86 36.7-25.1 35.74-22.34 35.74-19.7 35.74-17.07 36.13-14.97 36.52-12.87 37.29-11 38.06-9.13 39.22-7.54 40.38-5.96 41.92-4.81L41.92-4.81Q45.19-2.37 49.63-2.37L49.63-2.37Q55.71-2.37 59.52-6.49L59.52-6.49Q63.25-10.55 63.25-17.07L63.25-17.07Q63.25-24.24 60.01-29L60.01-29Q56.3-34.45 49.17-34.45L49.17-34.45Q43.28-34.45 39.45-29.93L39.45-29.93ZM98.65-31.23L98.65-31.23Q99.31-29.54 99.31-27.39 99.31-25.24 98.64-23.49 97.97-21.73 96.7-20.46L96.7-20.46Q94.28-18.04 89.59-17.07L89.59-17.07 90.03-17.87 99.68-3.22 101.39-2.47 104.83-2.08 104.83 0 96.45 0 85.47-17.55 87.52-16.67 80.98-16.67 80.98-2.64 84.64-2.08 84.64 0 72.68 0 72.68-2.08 76.46-2.64 76.46-34.18 72.68-34.74 72.68-36.82 84.71-36.82Q96.41-36.82 98.65-31.23ZM84.96-33.86L80.98-33.86 80.98-19.31 84.59-19.31Q92.5-19.31 94.16-23.93L94.16-23.93Q94.67-25.32 94.67-26.94 94.67-28.56 94.21-29.86 93.75-31.15 92.65-32.03L92.65-32.03Q90.38-33.86 84.96-33.86L84.96-33.86ZM124.28-15.09L123.55-17.65 114.57-17.65 114.57-2.93 128.17-2.93 129.92-7.25 131.78-7.25 130.97 0 106.27 0 106.27-2.08 109.98-2.64 109.98-34.18 106.27-34.74 106.27-36.82 129.9-36.82 130.46-29.57 128.31-29.57 126.99-33.86 114.57-33.86 114.57-20.58 123.55-20.58 124.28-23.17 126.02-23.17 126.02-15.09 124.28-15.09ZM157.83 0L143.35-30.71Q143.35-30.71 142.32-2.64L142.32-2.64 145.72-2.08 145.72 0 135.59 0 135.59-2.08 139.05-2.64 140.81-34.18 137.37-34.74 137.37-36.82 145.72-36.82 158.83-8.23 172.04-36.82 179.68-36.82 179.68-34.74 176.02-34.18Q176.41-26.22 176.85-18.33 177.28-10.45 177.65-2.64L177.65-2.64 181.41-2.08 181.41 0 169.47 0 169.47-2.08 173.13-2.64 172.04-30.35 157.83 0Z" fill="#6b7280" data-fill-palette-color="primary"></path><path d="M200.5-34.74L200.5-36.82 212.46-36.82 212.46-34.74 208.78-34.18 208.78-2.64 212.46-2.08 212.46 0 200.5 0 200.5-2.08 204.26-2.64 204.26-34.18 200.5-34.74ZM229.67 0L216.56 0 216.56-2.08 220.27-2.64 220.27-34.18 216.56-34.74 216.56-36.82 228.6-36.82Q239-36.82 241.88-31.2L241.88-31.2Q242.95-29.13 242.95-26.21 242.95-23.29 241.99-21.04 241.02-18.8 239.12-17.24L239.12-17.24Q235.19-13.96 227.79-13.96L227.79-13.96 224.86-13.96 224.86-2.64 229.67-2.08 229.67 0ZM228.01-33.86L224.86-33.86 224.86-16.55 228.48-16.55Q233.33-16.55 235.9-19.14L235.9-19.14Q238.17-21.48 238.17-25.46L238.17-25.46Q238.17-29.57 235.99-31.59L235.99-31.59Q233.58-33.86 228.01-33.86L228.01-33.86ZM258.4-2.34L258.4-2.34Q260.21-2.34 261.69-2.7 263.17-3.05 264.24-3.81L264.24-3.81Q266.53-5.4 266.53-8.45L266.53-8.45Q266.53-11.04 264.85-12.7L264.85-12.7Q263.07-14.4 259.08-16.15 255.08-17.9 253-19.27 250.91-20.65 249.71-22.07L249.71-22.07Q247.54-24.56 247.54-28.1L247.54-28.1Q247.54-32.2 251.08-34.86L251.08-34.86Q254.38-37.38 259.06-37.38L259.06-37.38Q262.75-37.38 266.44-36.04L266.44-36.04Q267.97-35.42 269.22-34.69L269.22-34.69 268.37-28.17 266.31-28.17Q266.31-31.54 264.48-33.07 262.65-34.59 259.19-34.59L259.19-34.59Q254.4-34.59 252.64-31.47L252.64-31.47Q252.08-30.44 252.08-29.17 252.08-27.91 252.45-26.89 252.81-25.88 253.86-24.9L253.86-24.9Q255.91-22.92 261.58-20.56L261.58-20.56Q269.49-17.19 270.81-12.6L270.81-12.6Q271.2-11.16 271.2-9.53 271.2-7.91 270.65-6.46 270.1-5 269.15-3.87 268.19-2.73 266.94-1.9 265.68-1.07 264.26-0.54L264.26-0.54Q257.99 1.9 251.08-0.93L251.08-0.93Q248.57-1.98 246.64-3.49L246.64-3.49 247.66-10.5 249.74-10.5Q249.74-5.59 252.84-3.66L252.84-3.66Q254.96-2.34 258.4-2.34ZM292.56 0.56L292.56 0.56Q277.93 0.56 277.93-13.21L277.93-13.21 277.93-34.18 274.15-34.74 274.15-36.82 286.36-36.82 286.36-34.74 282.45-34.18 282.45-13.94Q282.45-4.93 288.19-2.98L288.19-2.98Q290.02-2.37 292.62-2.37 295.22-2.37 297.29-3.03 299.37-3.69 300.74-5.1L300.74-5.1Q303.45-7.91 303.45-13.94L303.45-13.94 303.45-34.18 299.71-34.74 299.71-36.82 309.94-36.82 309.94-34.74 306.25-34.18 306.25-13.21Q306.25-6.62 302.71-3.03 299.17 0.56 292.56 0.56ZM335.18 0L320.7-30.71Q320.7-30.71 319.68-2.64L319.68-2.64 323.07-2.08 323.07 0 312.94 0 312.94-2.08 316.41-2.64 318.17-34.18 314.72-34.74 314.72-36.82 323.07-36.82 336.18-8.23 349.39-36.82 357.03-36.82 357.03-34.74 353.37-34.18Q353.76-26.22 354.2-18.33 354.64-10.45 355.01-2.64L355.01-2.64 358.77-2.08 358.77 0 346.83 0 346.83-2.08 350.49-2.64 349.39-30.35 335.18 0Z" fill="#97978d" data-fill-palette-color="secondary"></path><path d="M389.92-2.34L389.92-2.34Q391.73-2.34 393.2-2.7 394.68-3.05 395.75-3.81L395.75-3.81Q398.05-5.4 398.05-8.45L398.05-8.45Q398.05-11.04 396.37-12.7L396.37-12.7Q394.58-14.4 390.59-16.15 386.6-17.9 384.51-19.27 382.42-20.65 381.23-22.07L381.23-22.07Q379.06-24.56 379.06-28.1L379.06-28.1Q379.06-32.2 382.6-34.86L382.6-34.86Q385.89-37.38 390.58-37.38L390.58-37.38Q394.27-37.38 397.95-36.04L397.95-36.04Q399.49-35.42 400.74-34.69L400.74-34.69 399.88-28.17 397.83-28.17Q397.83-31.54 396-33.07 394.17-34.59 390.7-34.59L390.7-34.59Q385.92-34.59 384.16-31.47L384.16-31.47Q383.6-30.44 383.6-29.17 383.6-27.91 383.96-26.89 384.33-25.88 385.38-24.9L385.38-24.9Q387.43-22.92 393.09-20.56L393.09-20.56Q401-17.19 402.32-12.6L402.32-12.6Q402.71-11.16 402.71-9.53 402.71-7.91 402.16-6.46 401.61-5 400.66-3.87 399.71-2.73 398.45-1.9 397.2-1.07 395.78-0.54L395.78-0.54Q389.5 1.9 382.6-0.93L382.6-0.93Q380.08-1.98 378.15-3.49L378.15-3.49 379.18-10.5 381.25-10.5Q381.25-5.59 384.35-3.66L384.35-3.66Q386.48-2.34 389.92-2.34ZM430.64 0L430.64-2.08 434.01-2.64 430.15-12.13 415.5-12.13 411.67-2.64 415.11-2.08 415.11 0 404.64 0 404.64-2.08 408.5-2.64 421.31-34.33 420.29-36.74 424.24-38.4 438.84-2.64 442.77-2.08 442.77 0 430.64 0ZM422.85-30.76L416.65-15.09 429.08-15.09 422.85-30.76ZM444.09-36.82L456.05-36.82 456.05-34.74 452.39-34.18 452.39-2.93 465.77-2.93 467.21-8.4 469.21-8.4 468.99 0 444.09 0 444.09-2.08 447.8-2.64 447.8-34.18 444.09-34.74 444.09-36.82ZM491.5-15.09L490.77-17.65 481.78-17.65 481.78-2.93 495.38-2.93 497.14-7.25 498.99-7.25 498.19 0 473.48 0 473.48-2.08 477.19-2.64 477.19-34.18 473.48-34.74 473.48-36.82 497.11-36.82 497.68-29.57 495.53-29.57 494.21-33.86 481.78-33.86 481.78-20.58 490.77-20.58 491.5-23.17 493.23-23.17 493.23-15.09 491.5-15.09ZM515.08-2.34L515.08-2.34Q516.89-2.34 518.36-2.7 519.84-3.05 520.92-3.81L520.92-3.81Q523.21-5.4 523.21-8.45L523.21-8.45Q523.21-11.04 521.53-12.7L521.53-12.7Q519.74-14.4 515.75-16.15 511.76-17.9 509.67-19.27 507.59-20.65 506.39-22.07L506.39-22.07Q504.22-24.56 504.22-28.1L504.22-28.1Q504.22-32.2 507.76-34.86L507.76-34.86Q511.05-37.38 515.74-37.38L515.74-37.38Q519.43-37.38 523.11-36.04L523.11-36.04Q524.65-35.42 525.9-34.69L525.9-34.69 525.04-28.17 522.99-28.17Q522.99-31.54 521.16-33.07 519.33-34.59 515.86-34.59L515.86-34.59Q511.08-34.59 509.32-31.47L509.32-31.47Q508.76-30.44 508.76-29.17 508.76-27.91 509.12-26.89 509.49-25.88 510.54-24.9L510.54-24.9Q512.59-22.92 518.25-20.56L518.25-20.56Q526.16-17.19 527.48-12.6L527.48-12.6Q527.87-11.16 527.87-9.53 527.87-7.91 527.32-6.46 526.78-5 525.82-3.87 524.87-2.73 523.61-1.9 522.36-1.07 520.94-0.54L520.94-0.54Q514.67 1.9 507.76-0.93L507.76-0.93Q505.24-1.98 503.31-3.49L503.31-3.49 504.34-10.5 506.41-10.5Q506.41-5.59 509.51-3.66L509.51-3.66Q511.64-2.34 515.08-2.34Z" fill="#6b7280" data-fill-palette-color="primary"></path></g></svg></g></svg></g><g transform="matrix(1,0,0,1,0,35.417279209158615)"><svg viewBox="0 0 387.6495670945834 28.65299480708194" height="28.65299480708194" width="387.6495670945834"><g transform="matrix(1,0,0,1,0,0)"><svg width="387.6495670945834" viewBox="2.299999952316284 -40.349998474121094 695.4000244140625 51.39999771118164" height="28.65299480708194" data-palette-color="#97978d"><path d="M2.3-34.65L20.6-34.65 19.8-29.05 10.15-29.05 10.15-20.35 18.65-20.35 18.65-14.85 10.15-14.85 10.15-5.7 20.45-5.7 20.45 0 2.3 0 2.3-34.65ZM31.87 0.85Q28.72 0.85 26.97-1 25.22-2.85 25.22-6.05L25.22-6.05 25.22-37.1 32.77-37.9 32.77-6.4Q32.77-5.15 33.82-5.15L33.82-5.15Q34.12-5.15 34.72-5.3L34.72-5.3 36.07-0.1Q35.27 0.3 34.17 0.58 33.07 0.85 31.87 0.85L31.87 0.85ZM59.99-13.8Q59.99-12.2 59.84-11.05L59.84-11.05 46.34-11.05Q46.59-7.45 47.67-6.08 48.74-4.7 50.79-4.7L50.79-4.7Q52.14-4.7 53.39-5.23 54.64-5.75 56.09-6.85L56.09-6.85 59.19-2.75Q55.49 0.85 50.24 0.85L50.24 0.85Q44.64 0.85 41.74-2.83 38.84-6.5 38.84-13.1L38.84-13.1Q38.84-19.7 41.62-23.55 44.39-27.4 49.54-27.4L49.54-27.4Q54.44-27.4 57.22-23.93 59.99-20.45 59.99-13.8L59.99-13.8ZM52.64-15.6L52.64-15.95Q52.64-19.35 51.97-20.88 51.29-22.4 49.59-22.4L49.59-22.4Q48.09-22.4 47.32-20.93 46.54-19.45 46.34-15.6L46.34-15.6 52.64-15.6ZM77.41-26.55L84.71-26.55 78.11 0 69.21 0 62.41-26.55 70.11-26.55 73.66-5.75 77.41-26.55ZM106.58-7.05Q106.58-5.8 106.88-5.2 107.18-4.6 107.93-4.25L107.93-4.25 106.38 0.7Q104.23 0.5 102.86-0.33 101.48-1.15 100.73-2.9L100.73-2.9Q98.43 0.85 94.18 0.85L94.18 0.85Q90.88 0.85 88.93-1.43 86.98-3.7 86.98-7.45L86.98-7.45Q86.98-11.8 89.68-14.08 92.38-16.35 97.58-16.35L97.58-16.35 99.18-16.35 99.18-17.75Q99.18-20.15 98.46-21.08 97.73-22 95.88-22L95.88-22Q93.58-22 90.18-20.65L90.18-20.65 88.48-25.45Q90.53-26.4 92.86-26.9 95.18-27.4 97.28-27.4L97.28-27.4Q101.98-27.4 104.28-25.13 106.58-22.85 106.58-18.15L106.58-18.15 106.58-7.05ZM96.48-4.5Q97.33-4.5 98.03-5.15 98.73-5.8 99.18-7L99.18-7 99.18-12.15 98.28-12.15Q96.23-12.15 95.31-11.18 94.38-10.2 94.38-8.1L94.38-8.1Q94.38-6.35 94.93-5.43 95.48-4.5 96.48-4.5L96.48-4.5ZM124.85-5.85L127.35-1.25Q126.1-0.2 124.45 0.33 122.8 0.85 121.1 0.85L121.1 0.85Q117.25 0.85 115.3-1.35 113.35-3.55 113.35-7.25L113.35-7.25 113.35-21.25 110.6-21.25 110.6-26.55 113.35-26.55 113.35-32.35 120.9-33.2 120.9-26.55 125.85-26.55 125.05-21.25 120.9-21.25 120.9-7.3Q120.9-5.15 122.7-5.15L122.7-5.15Q123.7-5.15 124.85-5.85L124.85-5.85ZM150.88-13.8Q150.88-12.2 150.73-11.05L150.73-11.05 137.23-11.05Q137.48-7.45 138.55-6.08 139.63-4.7 141.68-4.7L141.68-4.7Q143.03-4.7 144.28-5.23 145.53-5.75 146.98-6.85L146.98-6.85 150.08-2.75Q146.38 0.85 141.13 0.85L141.13 0.85Q135.53 0.85 132.63-2.83 129.73-6.5 129.73-13.1L129.73-13.1Q129.73-19.7 132.5-23.55 135.28-27.4 140.43-27.4L140.43-27.4Q145.33-27.4 148.1-23.93 150.88-20.45 150.88-13.8L150.88-13.8ZM143.53-15.6L143.53-15.95Q143.53-19.35 142.85-20.88 142.18-22.4 140.48-22.4L140.48-22.4Q138.98-22.4 138.2-20.93 137.43-19.45 137.23-15.6L137.23-15.6 143.53-15.6ZM186.82-26.55L179.92 0.05Q177.32 10.3 166.82 11.05L166.82 11.05 166.02 5.85Q169.17 5.3 170.79 4.03 172.42 2.75 173.32 0L173.32 0 170.52 0 164.17-26.55 171.77-26.55 175.27-4.85 179.37-26.55 186.82-26.55ZM200.49-27.4Q205.69-27.4 208.61-23.85 211.54-20.3 211.54-13.25L211.54-13.25Q211.54-6.5 208.61-2.83 205.69 0.85 200.49 0.85L200.49 0.85Q195.29 0.85 192.36-2.73 189.44-6.3 189.44-13.3L189.44-13.3Q189.44-20.15 192.36-23.78 195.29-27.4 200.49-27.4L200.49-27.4ZM200.49-21.8Q198.74-21.8 197.96-19.88 197.19-17.95 197.19-13.3L197.19-13.3Q197.19-8.5 197.96-6.6 198.74-4.7 200.49-4.7L200.49-4.7Q202.24-4.7 203.01-6.63 203.79-8.55 203.79-13.25L203.79-13.25Q203.79-18 203.01-19.9 202.24-21.8 200.49-21.8L200.49-21.8ZM236.01-26.55L236.01 0 229.41 0 229.11-3.05Q226.71 0.85 222.76 0.85L222.76 0.85Q219.86 0.85 218.18-1.25 216.51-3.35 216.51-6.8L216.51-6.8 216.51-26.55 224.06-26.55 224.06-7.1Q224.06-5.95 224.46-5.35 224.86-4.75 225.61-4.75L225.61-4.75Q227.21-4.75 228.46-7.55L228.46-7.55 228.46-26.55 236.01-26.55ZM254.98-27.3Q256.03-27.3 257.08-26.9L257.08-26.9 255.83-19.65Q254.93-19.95 253.98-19.95L253.98-19.95Q252.13-19.95 251.2-18.53 250.28-17.1 249.68-14.25L249.68-14.25 249.68 0 242.13 0 242.13-26.55 248.68-26.55 249.23-22.2Q251.13-27.3 254.98-27.3L254.98-27.3ZM279.62-27.4Q282.07-27.4 284.22-26.55 286.37-25.7 287.97-24.15L287.97-24.15 285.22-20.1Q282.47-22 280.27-22L280.27-22Q279.07-22 278.4-21.4 277.72-20.8 277.72-19.75L277.72-19.75Q277.72-18.6 278.57-17.88 279.42-17.15 282.22-16L282.22-16Q285.57-14.6 287.17-12.75 288.77-10.9 288.77-7.8L288.77-7.8Q288.77-3.8 285.95-1.48 283.12 0.85 278.62 0.85L278.62 0.85Q275.82 0.85 273.37-0.18 270.92-1.2 269.17-3.05L269.17-3.05 272.72-6.95Q275.72-4.5 278.22-4.5L278.22-4.5Q279.57-4.5 280.35-5.2 281.12-5.9 281.12-7.15L281.12-7.15Q281.12-8.55 280.25-9.38 279.37-10.2 276.67-11.3L276.67-11.3Q273.27-12.7 271.77-14.53 270.27-16.35 270.27-19.2L270.27-19.2Q270.27-22.8 272.77-25.1 275.27-27.4 279.62-27.4L279.62-27.4ZM306.84-27.4Q309.69-27.4 311.32-25.35 312.94-23.3 312.94-19.85L312.94-19.85 312.94 0 305.39 0 305.39-19.05Q305.39-21.65 303.94-21.65L303.94-21.65Q302.49-21.65 300.79-18.45L300.79-18.45 300.79 0 293.24 0 293.24-37.1 300.79-37.9 300.79-23.75Q302.04-25.65 303.49-26.53 304.94-27.4 306.84-27.4L306.84-27.4ZM328.96-27.4Q334.16-27.4 337.09-23.85 340.01-20.3 340.01-13.25L340.01-13.25Q340.01-6.5 337.09-2.83 334.16 0.85 328.96 0.85L328.96 0.85Q323.76 0.85 320.84-2.73 317.91-6.3 317.91-13.3L317.91-13.3Q317.91-20.15 320.84-23.78 323.76-27.4 328.96-27.4L328.96-27.4ZM328.96-21.8Q327.21-21.8 326.44-19.88 325.66-17.95 325.66-13.3L325.66-13.3Q325.66-8.5 326.44-6.6 327.21-4.7 328.96-4.7L328.96-4.7Q330.71-4.7 331.49-6.63 332.26-8.55 332.26-13.25L332.26-13.25Q332.26-18 331.49-19.9 330.71-21.8 328.96-21.8L328.96-21.8ZM358.58-27.4Q362.48-27.4 364.53-23.78 366.58-20.15 366.58-13.35L366.58-13.35Q366.58-9.05 365.51-5.83 364.43-2.6 362.48-0.88 360.53 0.85 357.88 0.85L357.88 0.85Q354.78 0.85 352.73-1.8L352.73-1.8 352.73 10.25 345.18 11.05 345.18-26.55 351.88-26.55 352.18-23.65Q353.48-25.6 355.03-26.5 356.58-27.4 358.58-27.4L358.58-27.4ZM355.68-4.75Q357.18-4.75 358.01-6.7 358.83-8.65 358.83-13.25L358.83-13.25Q358.83-18.2 358.13-20.03 357.43-21.85 355.98-21.85L355.98-21.85Q354.18-21.85 352.73-19.05L352.73-19.05 352.73-6.8Q353.98-4.75 355.68-4.75L355.68-4.75ZM385.15-27.4Q389.05-27.4 391.1-23.78 393.15-20.15 393.15-13.35L393.15-13.35Q393.15-9.05 392.08-5.83 391-2.6 389.05-0.88 387.1 0.85 384.45 0.85L384.45 0.85Q381.35 0.85 379.3-1.8L379.3-1.8 379.3 10.25 371.75 11.05 371.75-26.55 378.45-26.55 378.75-23.65Q380.05-25.6 381.6-26.5 383.15-27.4 385.15-27.4L385.15-27.4ZM382.25-4.75Q383.75-4.75 384.58-6.7 385.4-8.65 385.4-13.25L385.4-13.25Q385.4-18.2 384.7-20.03 384-21.85 382.55-21.85L382.55-21.85Q380.75-21.85 379.3-19.05L379.3-19.05 379.3-6.8Q380.55-4.75 382.25-4.75L382.25-4.75ZM398.33-26.55L405.88-26.55 405.88 0 398.33 0 398.33-26.55ZM402.03-40.35Q403.98-40.35 405.15-39.13 406.33-37.9 406.33-36L406.33-36Q406.33-34.15 405.13-32.93 403.93-31.7 402.03-31.7L402.03-31.7Q400.13-31.7 398.93-32.93 397.73-34.15 397.73-36L397.73-36Q397.73-37.9 398.93-39.13 400.13-40.35 402.03-40.35L402.03-40.35ZM425.55-27.4Q428.4-27.4 430.02-25.35 431.65-23.3 431.65-19.85L431.65-19.85 431.65 0 424.1 0 424.1-19.05Q424.1-21.65 422.65-21.65L422.65-21.65Q421.2-21.65 419.5-18.45L419.5-18.45 419.5 0 411.95 0 411.95-26.55 418.5-26.55 419.05-23.4Q420.35-25.4 421.9-26.4 423.45-27.4 425.55-27.4L425.55-27.4ZM456.47-30.45L458.32-25.05Q456.47-24.05 452.12-24.05L452.12-24.05Q454.32-23.05 455.37-21.38 456.42-19.7 456.42-17.15L456.42-17.15Q456.42-13.2 453.84-10.75 451.27-8.3 446.82-8.3L446.82-8.3Q445.42-8.3 444.42-8.6L444.42-8.6Q443.62-8.05 443.62-6.9L443.62-6.9Q443.62-6.05 444.14-5.6 444.67-5.15 446.07-5.15L446.07-5.15 448.77-5.15Q453.07-5.15 455.49-3.05 457.92-0.95 457.92 2.35L457.92 2.35Q457.92 6.3 454.84 8.68 451.77 11.05 446.07 11.05L446.07 11.05Q439.92 11.05 437.57 8.9 435.22 6.75 435.22 2.55L435.22 2.55 441.92 2.55Q441.92 4.45 442.79 5.28 443.67 6.1 446.12 6.1L446.12 6.1Q450.42 6.1 450.42 2.9L450.42 2.9Q450.42 1.45 449.59 0.73 448.77 0 447.07 0L447.07 0 445.07 0Q441.12 0 439.32-1.38 437.52-2.75 437.52-5.15L437.52-5.15Q437.52-6.6 438.27-7.88 439.02-9.15 440.32-10.05L440.32-10.05Q438.17-11.4 437.19-13.2 436.22-15 436.22-17.7L436.22-17.7Q436.22-22.2 438.97-24.75 441.72-27.3 446.47-27.3L446.47-27.3Q449.62-27.3 451.79-28.1 453.97-28.9 456.47-30.45L456.47-30.45ZM446.52-22.4Q445.07-22.4 444.34-21.33 443.62-20.25 443.62-17.8L443.62-17.8Q443.62-13.15 446.47-13.15L446.47-13.15Q447.87-13.15 448.57-14.2 449.27-15.25 449.27-17.9L449.27-17.9Q449.27-20.3 448.59-21.35 447.92-22.4 446.52-22.4L446.52-22.4ZM492.96-13.8Q492.96-12.2 492.81-11.05L492.81-11.05 479.31-11.05Q479.56-7.45 480.63-6.08 481.71-4.7 483.76-4.7L483.76-4.7Q485.11-4.7 486.36-5.23 487.61-5.75 489.06-6.85L489.06-6.85 492.16-2.75Q488.46 0.85 483.21 0.85L483.21 0.85Q477.61 0.85 474.71-2.83 471.81-6.5 471.81-13.1L471.81-13.1Q471.81-19.7 474.58-23.55 477.36-27.4 482.51-27.4L482.51-27.4Q487.41-27.4 490.18-23.93 492.96-20.45 492.96-13.8L492.96-13.8ZM485.61-15.6L485.61-15.95Q485.61-19.35 484.93-20.88 484.26-22.4 482.56-22.4L482.56-22.4Q481.06-22.4 480.28-20.93 479.51-19.45 479.31-15.6L479.31-15.6 485.61-15.6ZM516.73-26.55L510.93-14.2 517.88 0 509.98 0 506.33-10.1 502.88 0 495.13 0 501.98-13.95 495.73-26.55 503.53-26.55 506.43-17.85 509.18-26.55 516.73-26.55ZM534.65-27.4Q538.55-27.4 540.6-23.78 542.65-20.15 542.65-13.35L542.65-13.35Q542.65-9.05 541.58-5.83 540.5-2.6 538.55-0.88 536.6 0.85 533.95 0.85L533.95 0.85Q530.85 0.85 528.8-1.8L528.8-1.8 528.8 10.25 521.25 11.05 521.25-26.55 527.95-26.55 528.25-23.65Q529.55-25.6 531.1-26.5 532.65-27.4 534.65-27.4L534.65-27.4ZM531.75-4.75Q533.25-4.75 534.08-6.7 534.9-8.65 534.9-13.25L534.9-13.25Q534.9-18.2 534.2-20.03 533.5-21.85 532.05-21.85L532.05-21.85Q530.25-21.85 528.8-19.05L528.8-19.05 528.8-6.8Q530.05-4.75 531.75-4.75L531.75-4.75ZM568.02-13.8Q568.02-12.2 567.87-11.05L567.87-11.05 554.37-11.05Q554.62-7.45 555.7-6.08 556.77-4.7 558.82-4.7L558.82-4.7Q560.17-4.7 561.42-5.23 562.67-5.75 564.12-6.85L564.12-6.85 567.22-2.75Q563.52 0.85 558.27 0.85L558.27 0.85Q552.67 0.85 549.77-2.83 546.87-6.5 546.87-13.1L546.87-13.1Q546.87-19.7 549.65-23.55 552.42-27.4 557.57-27.4L557.57-27.4Q562.47-27.4 565.25-23.93 568.02-20.45 568.02-13.8L568.02-13.8ZM560.67-15.6L560.67-15.95Q560.67-19.35 560-20.88 559.32-22.4 557.62-22.4L557.62-22.4Q556.12-22.4 555.35-20.93 554.57-19.45 554.37-15.6L554.37-15.6 560.67-15.6ZM585.79-27.3Q586.84-27.3 587.89-26.9L587.89-26.9 586.64-19.65Q585.74-19.95 584.79-19.95L584.79-19.95Q582.94-19.95 582.02-18.53 581.09-17.1 580.49-14.25L580.49-14.25 580.49 0 572.94 0 572.94-26.55 579.49-26.55 580.04-22.2Q581.94-27.3 585.79-27.3L585.79-27.3ZM591.46-26.55L599.01-26.55 599.01 0 591.46 0 591.46-26.55ZM595.16-40.35Q597.11-40.35 598.29-39.13 599.46-37.9 599.46-36L599.46-36Q599.46-34.15 598.26-32.93 597.06-31.7 595.16-31.7L595.16-31.7Q593.26-31.7 592.06-32.93 590.86-34.15 590.86-36L590.86-36Q590.86-37.9 592.06-39.13 593.26-40.35 595.16-40.35L595.16-40.35ZM625.28-13.8Q625.28-12.2 625.13-11.05L625.13-11.05 611.63-11.05Q611.88-7.45 612.96-6.08 614.03-4.7 616.08-4.7L616.08-4.7Q617.43-4.7 618.68-5.23 619.93-5.75 621.38-6.85L621.38-6.85 624.48-2.75Q620.78 0.85 615.53 0.85L615.53 0.85Q609.93 0.85 607.03-2.83 604.13-6.5 604.13-13.1L604.13-13.1Q604.13-19.7 606.91-23.55 609.68-27.4 614.83-27.4L614.83-27.4Q619.73-27.4 622.51-23.93 625.28-20.45 625.28-13.8L625.28-13.8ZM617.93-15.6L617.93-15.95Q617.93-19.35 617.26-20.88 616.58-22.4 614.88-22.4L614.88-22.4Q613.38-22.4 612.61-20.93 611.83-19.45 611.63-15.6L611.63-15.6 617.93-15.6ZM643.8-27.4Q646.65-27.4 648.28-25.35 649.9-23.3 649.9-19.85L649.9-19.85 649.9 0 642.35 0 642.35-19.05Q642.35-21.65 640.9-21.65L640.9-21.65Q639.45-21.65 637.75-18.45L637.75-18.45 637.75 0 630.2 0 630.2-26.55 636.75-26.55 637.3-23.4Q638.6-25.4 640.15-26.4 641.7-27.4 643.8-27.4L643.8-27.4ZM666.18-27.4Q668.48-27.4 670.33-26.6 672.18-25.8 673.78-24.15L673.78-24.15 670.68-20Q668.63-21.65 666.78-21.65L666.78-21.65Q664.73-21.65 663.73-19.78 662.73-17.9 662.73-13.1L662.73-13.1Q662.73-8.55 663.78-6.8 664.83-5.05 666.73-5.05L666.73-5.05Q667.73-5.05 668.58-5.4 669.43-5.75 670.53-6.6L670.53-6.6 673.78-2.25Q670.53 0.85 666.28 0.85L666.28 0.85Q660.88 0.85 657.88-2.68 654.88-6.2 654.88-13.05L654.88-13.05Q654.88-17.5 656.25-20.73 657.63-23.95 660.18-25.68 662.73-27.4 666.18-27.4L666.18-27.4ZM697.7-13.8Q697.7-12.2 697.55-11.05L697.55-11.05 684.05-11.05Q684.3-7.45 685.37-6.08 686.45-4.7 688.5-4.7L688.5-4.7Q689.85-4.7 691.1-5.23 692.35-5.75 693.8-6.85L693.8-6.85 696.9-2.75Q693.2 0.85 687.95 0.85L687.95 0.85Q682.35 0.85 679.45-2.83 676.55-6.5 676.55-13.1L676.55-13.1Q676.55-19.7 679.32-23.55 682.1-27.4 687.25-27.4L687.25-27.4Q692.15-27.4 694.92-23.93 697.7-20.45 697.7-13.8L697.7-13.8ZM690.35-15.6L690.35-15.95Q690.35-19.35 689.67-20.88 689-22.4 687.3-22.4L687.3-22.4Q685.8-22.4 685.02-20.93 684.25-19.45 684.05-15.6L684.05-15.6 690.35-15.6Z" opacity="1" transform="matrix(1,0,0,1,0,0)" fill="#97978d" class="slogan-text-1" data-fill-palette-color="secondary" id="text-1"></path></svg></g></svg></g></svg></g></svg></g><g><svg viewBox="0 0 158.6475059308106 158.6475059308106" height="158.6475059308106" width="158.6475059308106"><g><svg></svg></g><g id="icon-0"><svg viewBox="0 0 158.6475059308106 158.6475059308106" height="158.6475059308106" width="158.6475059308106"><g><path d="M0 79.324c0-43.809 35.514-79.324 79.324-79.324 43.809 0 79.324 35.514 79.324 79.324 0 43.809-35.514 79.324-79.324 79.324-43.809 0-79.324-35.514-79.324-79.324zM79.324 156.064c42.382 0 76.74-34.358 76.74-76.74 0-42.382-34.358-76.74-76.74-76.74-42.382 0-76.74 34.358-76.74 76.74 0 42.382 34.358 76.74 76.74 76.74z" data-fill-palette-color="accent" fill="#97978d" stroke="transparent"></path></g><g transform="matrix(1,0,0,1,30.99088495048708,35.32939730572302)"><svg viewBox="0 0 96.66573602983645 87.98871131936457" height="87.98871131936457" width="96.66573602983645"><g><svg xmlns="http://www.w3.org/2000/svg" xmlns:xlink="http://www.w3.org/1999/xlink" version="1.1" x="0" y="0" viewBox="0.5 3.1480157375335693 59 53.70397186279297" enable-background="new 0 0 60 60" xml:space="preserve" height="87.98871131936457" width="96.66573602983645" class="icon-s-0" data-fill-palette-color="accent" id="s-0"><g fill="#97978d" data-fill-palette-color="accent"><g fill="#97978d" data-fill-palette-color="accent"><g fill="#97978d" data-fill-palette-color="accent"><g fill="#97978d" data-fill-palette-color="accent"><path d="M29.157 56.852c-1.959 0-3.8-0.763-5.185-2.148L7.936 38.669c-1.385-1.385-2.148-3.226-2.149-5.185 0-1.96 0.763-3.801 2.149-5.186L30.941 5.292c1.776-1.776 4.381-2.524 6.833-1.959L51.804 5.289c2.758 0.633 4.915 2.79 5.537 5.504l1.972 14.113c0.565 2.439-0.166 4.993-1.965 6.793L34.342 54.704C32.957 56.089 31.115 56.852 29.157 56.852zM36.124 4.112c-1.675 0-3.315 0.679-4.499 1.864L8.619 28.982c-1.202 1.202-1.865 2.801-1.864 4.502 0 1.7 0.663 3.299 1.864 4.501l16.037 16.036c1.202 1.202 2.801 1.864 4.501 1.864s3.299-0.662 4.501-1.864l23.006-23.006c1.561-1.561 2.196-3.78 1.699-5.933l-1.972-14.114c-0.532-2.314-2.405-4.187-4.762-4.729L37.598 4.283C37.087 4.167 36.605 4.112 36.124 4.112z" fill="#97978d" data-fill-palette-color="accent"></path></g></g><g fill="#97978d" data-fill-palette-color="accent"><g fill="#97978d" data-fill-palette-color="accent"><path d="M17.84 54.88c-0.124 0-0.247-0.047-0.342-0.142L3.487 40.728C1.561 38.802 0.5 36.24 0.5 33.517s1.061-5.284 2.987-7.21L22.314 7.479c0.189-0.189 0.495-0.189 0.684 0 0.189 0.189 0.189 0.495 0 0.684L4.171 26.991c-1.743 1.743-2.703 4.061-2.704 6.526 0 2.466 0.96 4.784 2.704 6.527l14.011 14.011c0.189 0.189 0.189 0.495 0 0.683C18.087 54.833 17.964 54.88 17.84 54.88z" fill="#97978d" data-fill-palette-color="accent"></path></g></g><g fill="#97978d" data-fill-palette-color="accent"><g fill="#97978d" data-fill-palette-color="accent"><path d="M45.839 21.838c-1.346 0-2.61-0.524-3.562-1.475-1.964-1.964-1.964-5.159 0-7.124 0.952-0.951 2.217-1.475 3.562-1.476 1.345 0 2.61 0.524 3.562 1.476 1.964 1.964 1.964 5.159 0 7.124C48.449 21.314 47.185 21.838 45.839 21.838zM45.839 12.73c-1.088 0-2.109 0.424-2.878 1.192-1.587 1.587-1.587 4.17 0 5.757 0.769 0.769 1.791 1.192 2.878 1.192 1.087 0 2.109-0.423 2.878-1.192 1.587-1.587 1.587-4.17 0-5.757C47.948 13.155 46.926 12.73 45.839 12.73z" fill="#97978d" data-fill-palette-color="accent"></path></g></g><g fill="#97978d" data-fill-palette-color="accent"><g fill="#97978d" data-fill-palette-color="accent"><g fill="#97978d" data-fill-palette-color="accent"><g fill="#97978d" data-fill-palette-color="accent"><path d="M27.082 40.805c-0.041 0-0.083-0.001-0.123-0.002-0.629-0.016-1.266-0.166-1.892-0.448-0.622-0.281-1.216-0.711-1.765-1.276l-0.161-0.161c-0.392-0.43-0.697-0.84-0.924-1.235-0.232-0.41-0.406-0.823-0.517-1.227-0.114-0.406-0.178-0.827-0.189-1.251-0.009-0.409 0.016-0.836 0.076-1.27 0.036-0.264 0.277-0.46 0.544-0.414 0.264 0.036 0.45 0.28 0.414 0.544-0.052 0.383-0.075 0.759-0.066 1.118 0.009 0.341 0.06 0.683 0.153 1.014 0.091 0.33 0.234 0.668 0.426 1.008 0.19 0.332 0.453 0.685 0.782 1.044l0.151 0.15c0.47 0.484 0.964 0.844 1.474 1.075 0.506 0.228 1.018 0.349 1.518 0.362 0.507 0.011 1-0.076 1.477-0.265 0.484-0.195 0.943-0.486 1.359-0.866 0.418-0.382 0.692-0.773 0.815-1.165 0.126-0.404 0.162-0.822 0.107-1.241-0.059-0.446-0.185-0.912-0.376-1.385-0.204-0.5-0.421-1.001-0.647-1.502-0.001-0.004-0.003-0.007-0.005-0.011-0.002-0.006-0.005-0.011-0.007-0.017l-0.091-0.231c-0.198-0.445-0.385-0.904-0.55-1.355-0.179-0.491-0.284-0.977-0.313-1.446-0.032-0.496 0.039-0.986 0.213-1.458 0.176-0.48 0.504-0.941 0.974-1.372 0.385-0.35 0.824-0.622 1.307-0.807 0.491-0.187 1.009-0.27 1.538-0.24 0.529 0.027 1.064 0.167 1.589 0.415 0.521 0.246 1.025 0.622 1.501 1.116l0.167 0.183c0.434 0.501 0.739 0.977 0.914 1.423 0.17 0.433 0.279 0.828 0.325 1.176 0.047 0.346 0.06 0.63 0.04 0.869-0.023 0.266-0.261 0.457-0.523 0.44-0.266-0.023-0.464-0.257-0.44-0.523 0.014-0.163 0.002-0.384-0.035-0.656-0.036-0.272-0.126-0.592-0.268-0.952-0.135-0.345-0.382-0.725-0.736-1.135l-0.15-0.164c-0.385-0.4-0.794-0.707-1.208-0.903-0.416-0.196-0.817-0.302-1.226-0.324-0.394-0.015-0.779 0.04-1.143 0.179-0.374 0.143-0.701 0.346-1 0.617-0.355 0.325-0.597 0.658-0.719 0.991-0.127 0.345-0.179 0.703-0.155 1.064 0.024 0.377 0.11 0.772 0.257 1.175 0.158 0.432 0.336 0.87 0.533 1.313l0.096 0.242c0.23 0.51 0.45 1.021 0.658 1.53 0.222 0.55 0.37 1.096 0.438 1.622 0.074 0.558 0.026 1.116-0.142 1.656-0.175 0.556-0.54 1.091-1.086 1.59-0.503 0.458-1.059 0.811-1.652 1.05C28.257 40.692 27.674 40.805 27.082 40.805z" fill="#97978d" data-fill-palette-color="accent"></path></g></g></g><g fill="#97978d" data-fill-palette-color="accent"><g fill="#97978d" data-fill-palette-color="accent"><path d="M22.486 41.55c-0.124 0-0.247-0.047-0.342-0.142-0.189-0.189-0.189-0.495 0-0.683l14.858-14.858c0.189-0.189 0.495-0.189 0.684 0s0.189 0.495 0 0.684L22.828 41.408C22.733 41.503 22.609 41.55 22.486 41.55z" fill="#97978d" data-fill-palette-color="accent"></path></g></g></g></g></g></svg></g></svg></g></svg></g></svg></g></svg></g><defs></defs></svg><rect width="395.52" height="110.53143457975999" fill="none" stroke="none" visibility="hidden"></rect></g></svg></g></svg>